<svg width="36" height="36" viewBox="0 0 36 36" fill="none" xmlns="http://www.w3.org/2000/svg">
<path fill-rule="evenodd" clip-rule="evenodd" d="M26.4898 8.81774C26.0995 8.4274 25.4657 8.4283 25.0743 8.81973L8.94556 24.9485C8.55409 25.3399 8.55323 25.9737 8.94356 26.364C9.33392 26.7544 9.96764 26.7535 10.3591 26.362L26.4878 10.2333C26.8793 9.84186 26.8802 9.2081 26.4898 8.81774Z" fill="white" stroke="white" stroke-width="3"/>
<path fill-rule="evenodd" clip-rule="evenodd" d="M26.4878 24.9485L10.3591 8.81974C9.96762 8.42831 9.33225 8.429 8.93997 8.82128C8.54765 9.21359 8.547 9.84893 8.93843 10.2404L25.0672 26.3691C25.4586 26.7606 26.0939 26.7599 26.4862 26.3676C26.8785 25.9753 26.8793 25.3399 26.4878 24.9485Z" fill="white" stroke="white" stroke-width="3"/>
</svg>
