<svg width="12" height="15" viewBox="0 0 12 15" fill="none" xmlns="http://www.w3.org/2000/svg">
<path fill-rule="evenodd" clip-rule="evenodd" d="M4.5893 12.3986C4.58925 12.4023 4.58901 12.406 4.58901 12.4096C4.58901 13.3318 5.33611 14.0794 6.25773 14.0794C7.17935 14.0794 7.92647 13.3318 7.92647 12.4096C7.92647 12.406 7.92623 12.4023 7.92618 12.3986H4.5893Z" fill="#FFDC00"/>
<path fill-rule="evenodd" clip-rule="evenodd" d="M11.589 10.3115L10.0862 8.10468C10.0862 7.42915 10.0862 5.77849 10.0862 5.35148C10.0862 3.49474 8.76337 1.94703 7.00844 1.59825V0.750435C7.00841 0.336002 6.67231 0 6.25769 0C5.84307 0 5.50696 0.336002 5.50696 0.750435V1.59828C3.75204 1.94709 2.42922 3.4948 2.42922 5.35151C2.42922 6.07838 2.42922 7.68341 2.42922 8.10471L0.926388 10.3115C0.768085 10.5439 0.751341 10.8448 0.882876 11.0934C1.01441 11.3419 1.27263 11.4974 1.55394 11.4974H10.9614C11.2427 11.4974 11.5009 11.3419 11.6325 11.0934C11.764 10.8448 11.7473 10.5439 11.589 10.3115L11.589 10.3115Z" fill="#FFDC00"/>
</svg>
