<svg width="187" height="218" viewBox="0 0 187 218" fill="none" xmlns="http://www.w3.org/2000/svg">
<g filter="url(#filter0_d_0_3481)">
<path fill-rule="evenodd" clip-rule="evenodd" d="M48.3746 42.2554H138.341C146.623 42.2554 153.336 48.9684 153.336 57.2502V169.709C153.336 177.991 146.623 184.704 138.341 184.704H48.3746C40.0927 184.704 33.3796 177.991 33.3796 169.709V57.2502C33.3796 48.9694 40.0927 42.2554 48.3746 42.2554Z" fill="#3AD9F2"/>
</g>
<path fill-rule="evenodd" clip-rule="evenodd" d="M136.145 149.414L118.046 167.513C116.639 168.92 114.732 169.709 112.744 169.709H55.871C51.7311 169.709 48.3745 166.353 48.3745 162.213V64.7478C48.3745 60.6069 51.7311 57.2502 55.871 57.2502H130.845C134.984 57.2502 138.341 60.6069 138.341 64.7478V144.112C138.341 146.1 137.552 148.008 136.145 149.414V149.414Z" fill="#E4E7FB"/>
<path fill-rule="evenodd" clip-rule="evenodd" d="M63.3685 57.2502H123.347C127.487 57.2502 130.844 60.6069 130.844 64.7478C130.844 68.8887 127.487 72.2452 123.347 72.2452H63.3685C59.2276 72.2452 55.871 68.8887 55.871 64.7478C55.871 60.6069 59.2276 57.2502 63.3685 57.2502Z" fill="#C2CBFF"/>
<path fill-rule="evenodd" clip-rule="evenodd" d="M78.3634 94.7367C78.3634 98.8776 75.0068 102.234 70.8658 102.234C66.7249 102.234 63.3685 98.8776 63.3685 94.7367C63.3685 90.5968 66.7249 87.2391 70.8658 87.2391C75.0068 87.2391 78.3634 90.5968 78.3634 94.7367Z" fill="#FF75E3"/>
<path fill-rule="evenodd" clip-rule="evenodd" d="M93.3574 87.2391H115.85C119.991 87.2391 123.347 90.5958 123.347 94.7367C123.347 98.8776 119.991 102.234 115.85 102.234H93.3574C89.2175 102.234 85.8608 98.8776 85.8608 94.7367C85.8608 90.5968 89.2175 87.2391 93.3574 87.2391Z" fill="#33527D"/>
<path fill-rule="evenodd" clip-rule="evenodd" d="M93.3574 109.731H115.85C119.991 109.731 123.347 113.088 123.347 117.229C123.347 121.369 119.991 124.725 115.85 124.725H93.3574C89.2175 124.725 85.8608 121.369 85.8608 117.229C85.8608 113.088 89.2175 109.731 93.3574 109.731Z" fill="#33527D"/>
<path fill-rule="evenodd" clip-rule="evenodd" d="M93.3574 132.223H115.85C119.991 132.223 123.347 135.579 123.347 139.72C123.347 143.86 119.991 147.218 115.85 147.218H93.3574C89.2175 147.218 85.8608 143.86 85.8608 139.72C85.8608 135.579 89.2175 132.223 93.3574 132.223Z" fill="#33527D"/>
<path fill-rule="evenodd" clip-rule="evenodd" d="M78.3634 117.229C78.3634 121.369 75.0068 124.725 70.8658 124.725C66.7249 124.725 63.3685 121.369 63.3685 117.229C63.3685 113.088 66.7249 109.731 70.8658 109.731C75.0068 109.731 78.3634 113.088 78.3634 117.229Z" fill="#079CFF"/>
<path fill-rule="evenodd" clip-rule="evenodd" d="M78.3634 139.72C78.3634 143.861 75.0068 147.218 70.8658 147.218C66.7249 147.218 63.3685 143.861 63.3685 139.72C63.3685 135.579 66.7249 132.223 70.8658 132.223C75.0068 132.223 78.3634 135.579 78.3634 139.72Z" fill="#FFBE00"/>
<path fill-rule="evenodd" clip-rule="evenodd" d="M93.3574 49.7529C89.2175 49.7529 85.8597 46.3962 85.8597 42.2554C85.8597 38.1155 89.2164 34.7579 93.3574 34.7579C97.4983 34.7579 100.855 38.1145 100.855 42.2554C100.855 46.3962 97.4983 49.7529 93.3574 49.7529ZM119.598 42.2554H115.85C115.85 29.8336 105.78 19.764 93.3574 19.764C80.9356 19.764 70.8658 29.8336 70.8658 42.2554H67.1173C60.9064 42.2554 55.871 47.2908 55.871 53.5017C55.871 59.7126 60.9064 64.7478 67.1173 64.7478H119.598C125.809 64.7478 130.845 59.7125 130.845 53.5017C130.845 47.2908 125.809 42.2554 119.598 42.2554H119.598Z" fill="#7D8FAC"/>
<path d="M168.492 122.129C168.492 119.166 170.895 116.763 173.858 116.763C176.822 116.763 179.224 119.166 179.224 122.129C179.224 125.093 176.822 127.495 173.858 127.495C170.895 127.495 168.492 125.093 168.492 122.129Z" stroke="#32CBF0" stroke-width="4"/>
<path d="M164.209 8.94943C168.35 8.94943 171.707 12.3065 171.707 16.4477C171.707 20.5889 168.35 23.946 164.209 23.946C160.068 23.946 156.711 20.5889 156.711 16.4477C156.711 12.3065 160.068 8.94943 164.209 8.94943Z" stroke="#FFBE00" stroke-width="4"/>
<path opacity="0.3" d="M19.5601 131.545C23.6034 131.545 26.8831 134.825 26.8831 138.873C26.8831 142.921 23.6034 146.201 19.5601 146.201C15.5167 146.201 12.237 142.921 12.237 138.873C12.237 134.825 15.5167 131.545 19.5601 131.545Z" stroke="#FF75E3" stroke-width="4"/>
<path fill-rule="evenodd" clip-rule="evenodd" d="M174.35 77.5131C174.35 74.8001 176.547 72.6007 179.257 72.6007C181.968 72.6007 184.165 74.8001 184.165 77.5131C184.165 80.2261 181.968 82.4255 179.257 82.4255C176.547 82.4255 174.35 80.2261 174.35 77.5131Z" fill="#FF75E3"/>
<path fill-rule="evenodd" clip-rule="evenodd" d="M4.37928 90.382C4.37928 87.1286 7.0167 84.4911 10.2701 84.4911C13.5235 84.4911 16.161 87.1286 16.161 90.382C16.161 93.6354 13.5235 96.2728 10.2701 96.2728C7.0167 96.2728 4.37928 93.6354 4.37928 90.382Z" fill="#3AD9F2"/>
<path fill-rule="evenodd" clip-rule="evenodd" d="M32.8098 37.6868C30.4237 39.0094 27.4063 38.144 26.0836 35.7577L23.8488 31.7261C22.8513 29.9265 23.5037 27.6513 25.303 26.6539L27.4313 25.4742C29.2306 24.4768 31.5059 25.1293 32.5034 26.9288L34.7382 30.9604C36.0611 33.3467 35.1959 36.3641 32.8098 37.6868Z" fill="#FF52A8"/>
<path fill-rule="evenodd" clip-rule="evenodd" d="M19.049 12.5818L18.812 12.7132C17.0129 13.7105 14.7384 13.0589 13.7417 11.2608L10.9848 6.28709C9.95187 4.42365 10.6283 2.06686 12.4927 1.0334C14.3571 -5.70082e-06 16.7143 0.675171 17.7472 2.53861L20.5042 7.51229C21.5008 9.31032 20.848 11.5846 19.049 12.5818Z" fill="#FF52A8"/>
<path fill-rule="evenodd" clip-rule="evenodd" d="M15.613 5.44522L14.5803 6.01764C8.80063 9.22138 6.70437 16.5288 9.90736 22.3071L15.2962 32.0288C15.6365 32.6428 16.4104 32.8646 17.0245 32.5242L36.7965 21.5644C37.4107 21.2239 37.6327 20.4501 37.2923 19.8361L31.9035 10.1145C28.7006 4.33607 21.3926 2.24153 15.613 5.44522L15.613 5.44522Z" fill="#FEEB70"/>
<g filter="url(#filter1_d_0_3481)">
<path fill-rule="evenodd" clip-rule="evenodd" d="M40.767 27.1346L19.6446 38.8429C17.4787 40.0435 14.7393 39.2569 13.5379 37.0896L13.3658 36.779C12.1644 34.6118 12.9492 31.872 15.115 30.6714L36.2375 18.963C38.4034 17.7624 41.1429 18.5489 42.3441 20.7161L42.5163 21.0267C43.7175 23.1941 42.9328 25.934 40.767 27.1346Z" fill="#FEF7CB"/>
</g>
<g filter="url(#filter2_d_0_3481)">
<path fill-rule="evenodd" clip-rule="evenodd" d="M138.379 194C127.334 194 118.379 185.046 118.379 174V165C118.379 153.954 127.334 145 138.379 145H146.379C157.425 145 166.379 153.954 166.379 165V174C166.379 185.046 157.425 194 146.379 194H138.379Z" fill="url(#paint0_linear_0_3481)"/>
</g>
<g filter="url(#filter3_d_0_3481)">
<path fill-rule="evenodd" clip-rule="evenodd" d="M139.369 179.98C138.526 179.98 137.717 179.645 137.121 179.049L130.311 172.238C129.069 170.997 129.069 168.984 130.311 167.742C131.552 166.5 133.565 166.5 134.807 167.742L139.369 172.305L150.743 160.931C151.984 159.69 153.997 159.69 155.239 160.931C156.481 162.173 156.481 164.186 155.239 165.427L141.617 179.049C141.021 179.645 140.212 179.98 139.369 179.98H139.369Z" fill="#E8EBFF"/>
</g>
<defs>
<filter id="filter0_d_0_3481" x="0.379639" y="9.25537" width="185.956" height="208.449" filterUnits="userSpaceOnUse" color-interpolation-filters="sRGB">
<feFlood flood-opacity="0" result="BackgroundImageFix"/>
<feColorMatrix in="SourceAlpha" type="matrix" values="0 0 0 0 0 0 0 0 0 0 0 0 0 0 0 0 0 0 127 0" result="hardAlpha"/>
<feOffset/>
<feGaussianBlur stdDeviation="16.5"/>
<feColorMatrix type="matrix" values="0 0 0 0 0.729412 0 0 0 0 0.858824 0 0 0 0 0.882353 0 0 0 0.9 0"/>
<feBlend mode="normal" in2="BackgroundImageFix" result="effect1_dropShadow_0_3481"/>
<feBlend mode="normal" in="SourceGraphic" in2="effect1_dropShadow_0_3481" result="shape"/>
</filter>
<filter id="filter1_d_0_3481" x="5.34834" y="15.0248" width="42.2765" height="33.0039" filterUnits="userSpaceOnUse" color-interpolation-filters="sRGB">
<feFlood flood-opacity="0" result="BackgroundImageFix"/>
<feColorMatrix in="SourceAlpha" type="matrix" values="0 0 0 0 0 0 0 0 0 0 0 0 0 0 0 0 0 0 127 0" result="hardAlpha"/>
<feOffset dx="-1.45443" dy="2.62386"/>
<feGaussianBlur stdDeviation="3"/>
<feColorMatrix type="matrix" values="0 0 0 0 0.768627 0 0 0 0 0.576471 0 0 0 0 0.2 0 0 0 0.16 0"/>
<feBlend mode="normal" in2="BackgroundImageFix" result="effect1_dropShadow_0_3481"/>
<feBlend mode="normal" in="SourceGraphic" in2="effect1_dropShadow_0_3481" result="shape"/>
</filter>
<filter id="filter2_d_0_3481" x="108.379" y="138" width="68" height="69" filterUnits="userSpaceOnUse" color-interpolation-filters="sRGB">
<feFlood flood-opacity="0" result="BackgroundImageFix"/>
<feColorMatrix in="SourceAlpha" type="matrix" values="0 0 0 0 0 0 0 0 0 0 0 0 0 0 0 0 0 0 127 0" result="hardAlpha"/>
<feOffset dy="3"/>
<feGaussianBlur stdDeviation="5"/>
<feColorMatrix type="matrix" values="0 0 0 0 0.956863 0 0 0 0 0.294118 0 0 0 0 0.737255 0 0 0 0.43 0"/>
<feBlend mode="normal" in2="BackgroundImageFix" result="effect1_dropShadow_0_3481"/>
<feBlend mode="normal" in="SourceGraphic" in2="effect1_dropShadow_0_3481" result="shape"/>
</filter>
<filter id="filter3_d_0_3481" x="123.379" y="157" width="38.791" height="31.9803" filterUnits="userSpaceOnUse" color-interpolation-filters="sRGB">
<feFlood flood-opacity="0" result="BackgroundImageFix"/>
<feColorMatrix in="SourceAlpha" type="matrix" values="0 0 0 0 0 0 0 0 0 0 0 0 0 0 0 0 0 0 127 0" result="hardAlpha"/>
<feOffset dy="3"/>
<feGaussianBlur stdDeviation="3"/>
<feColorMatrix type="matrix" values="0 0 0 0 0 0 0 0 0 0 0 0 0 0 0 0 0 0 0.16 0"/>
<feBlend mode="normal" in2="BackgroundImageFix" result="effect1_dropShadow_0_3481"/>
<feBlend mode="normal" in="SourceGraphic" in2="effect1_dropShadow_0_3481" result="shape"/>
</filter>
<linearGradient id="paint0_linear_0_3481" x1="106.978" y1="166.655" x2="141.862" y2="204.94" gradientUnits="userSpaceOnUse">
<stop stop-color="#FB5EC7"/>
<stop offset="1" stop-color="#DF0F9A"/>
</linearGradient>
</defs>
</svg>
